# xmcd CD database file
#
# Track frame offsets:
#	150
#	71830
#	146372
#	220622
#
# Disc length: 3931 seconds
#
# Revision: 0
# Processed by: cddbd v1.5.1PL2 Copyright (c) Steve Scherf et al.
# Submitted via: CDex 1.51
#
DISCID=370f5904
DTITLE=Seasons - Seasons
DYEAR=2005
DGENRE=New Age
TTITLE0=Spring
TTITLE1=Summer
TTITLE2=Autumn
TTITLE3=Winter
EXTD=YEAR: 2005
EXTT0=
EXTT1=
EXTT2=
EXTT3=
PLAYORDER=
